<?xml version="1.0" encoding="UTF-8"?>
<svg width="24px" height="24px" viewBox="0 0 24 24" version="1.1" xmlns="http://www.w3.org/2000/svg" xmlns:xlink="http://www.w3.org/1999/xlink">
    <!-- Generator: Sketch 63.1 (92452) - https://sketch.com -->
    <title>alert-triangle</title>
    <desc>Created with Sketch.</desc>
    <defs>
        <path d="M12,15 C12.552,15 13,15.448 13,16 C13,16.552 12.552,17 12,17 C11.448,17 11,16.552 11,16 C11,15.448 11.448,15 12,15 Z M12,8 C12.552,8 13,8.448 13,9 L13,9 L13,13 C13,13.552 12.552,14 12,14 C11.448,14 11,13.552 11,13 L11,13 L11,9 C11,8.448 11.448,8 12,8 Z M20.8647,18.353 C20.6357,18.758 20.1897,19 19.6717,19 L4.3277,19 C3.8097,19 3.3637,18.758 3.1357,18.353 C3.0277,18.163 2.8857,17.776 3.1527,17.336 L10.8237,4.618 C11.2907,3.844 12.7087,3.844 13.1757,4.618 L20.8477,17.336 C21.1137,17.776 20.9727,18.163 20.8647,18.353 M22.5607,16.303 L14.8887,3.584 C14.2897,2.592 13.2097,2 11.9997,2 C10.7897,2 9.7097,2.592 9.1117,3.584 L1.4397,16.303 C0.8707,17.246 0.8537,18.38 1.3937,19.336 C1.9727,20.363 3.0977,21 4.3277,21 L19.6717,21 C20.9027,21 22.0267,20.363 22.6067,19.336 C23.1467,18.38 23.1297,17.246 22.5607,16.303" id="path-1"></path>
    </defs>
    <g id="alert-triangle" stroke="none" stroke-width="1" fill="none" fill-rule="evenodd">
        <g>
            <mask id="mask-2" fill="white">
                <use xlink:href="#path-1"></use>
            </mask>
            <use id="🎨-Icon-Сolor" fill="#F4C235" fill-rule="evenodd" xlink:href="#path-1"></use>
        </g>
    </g>
</svg>